<svg width="200" height="150" viewBox="0 0 200 150" xmlns="http://www.w3.org/2000/svg">
  <!-- Background -->
  <rect width="200" height="150" fill="#f8f9fa" stroke="#dee2e6" stroke-width="2"/>
  
  <!-- Header -->
  <rect x="10" y="10" width="180" height="25" fill="#6c757d" rx="3"/>
  
  <!-- Navigation -->
  <rect x="10" y="45" width="40" height="8" fill="#adb5bd" rx="2"/>
  <rect x="60" y="45" width="40" height="8" fill="#adb5bd" rx="2"/>
  <rect x="110" y="45" width="40" height="8" fill="#adb5bd" rx="2"/>
  
  <!-- Main Content Area -->
  <rect x="10" y="65" width="120" height="70" fill="#e9ecef" stroke="#ced4da" stroke-width="1" rx="3"/>
  
  <!-- Sidebar -->
  <rect x="140" y="65" width="50" height="70" fill="#f1f3f4" stroke="#ced4da" stroke-width="1" rx="3"/>
  
  <!-- Content Lines -->
  <rect x="20" y="75" width="80" height="4" fill="#6c757d" rx="2"/>
  <rect x="20" y="85" width="100" height="4" fill="#adb5bd" rx="2"/>
  <rect x="20" y="95" width="90" height="4" fill="#adb5bd" rx="2"/>
  <rect x="20" y="105" width="70" height="4" fill="#adb5bd" rx="2"/>
  
  <!-- Sidebar Elements -->
  <rect x="145" y="75" width="40" height="4" fill="#6c757d" rx="2"/>
  <rect x="145" y="85" width="35" height="4" fill="#adb5bd" rx="2"/>
  <rect x="145" y="95" width="30" height="4" fill="#adb5bd" rx="2"/>
  
  <!-- Template Label -->
  <text x="100" y="145" text-anchor="middle" font-family="Arial, sans-serif" font-size="12" fill="#6c757d">Default Template</text>
</svg>